<svg xmlns="http://www.w3.org/2000/svg" width="143" height="144" fill="none" viewBox="0 0 143 144"><path fill="#0194DA" fill-rule="evenodd" d="M98.07 12.62a65.282 65.282 0 1 0 38.713 59.667v-6.29a3.108 3.108 0 1 1 6.217 0v6.292a71.505 71.505 0 0 1-51.227 68.527 71.507 71.507 0 0 1-80.255-29.65A71.5 71.5 0 0 1 100.601 6.94a3.109 3.109 0 1 1-2.531 5.68z" clip-rule="evenodd"/><path fill="#0194DA" fill-rule="evenodd" d="M137.955 18.25a3.109 3.109 0 0 1-.021 4.397L70.978 88.966a3.109 3.109 0 0 1-4.375 0L46.516 69.092a3.109 3.109 0 0 1 4.373-4.42l17.9 17.712 64.77-64.153a3.108 3.108 0 0 1 4.396.02z" clip-rule="evenodd"/></svg>