<svg xmlns="http://www.w3.org/2000/svg" width="288" height="284" fill="none" viewBox="0 0 288 284"><path fill="#fff" d="M144.063 0c-39.039 0-43.93.16-59.271.855-15.287.694-25.755 3.097-34.888 6.605-9.457 3.631-17.47 8.474-25.466 16.343-7.977 7.887-12.905 15.81-16.569 25.12-3.555 9.01-5.974 19.317-6.678 34.415C.488 98.47.325 103.295.325 141.804s.163 43.334.866 58.466c.704 15.08 3.123 25.388 6.678 34.414 3.682 9.329 8.592 17.234 16.569 25.121 7.995 7.869 16.027 12.729 25.466 16.344 9.133 3.507 19.583 5.892 34.888 6.587 15.341.694 20.232.854 59.271.854s43.93-.16 59.271-.854c15.287-.695 25.755-3.08 34.888-6.587 9.457-3.632 17.47-8.475 25.466-16.344 7.977-7.887 12.904-15.809 16.568-25.121 3.556-9.026 5.974-19.316 6.696-34.414.704-15.132.848-19.957.848-58.466s-.162-43.333-.848-58.466c-.704-15.08-3.14-25.406-6.696-34.414-3.682-9.33-8.591-17.234-16.568-25.12-7.996-7.87-16.027-12.73-25.466-16.344-9.133-3.508-19.583-5.893-34.888-6.605C187.993.16 183.084 0 144.063 0zm0 25.548c38.389 0 42.919.142 58.08.819 14.005.64 21.622 2.937 26.693 4.896 6.714 2.581 11.515 5.643 16.533 10.61 5.035 4.968 8.139 9.668 10.756 16.309 1.986 5.002 4.314 12.498 4.964 26.33.686 14.956.83 19.424.83 57.292s-.162 42.337-.83 57.291c-.65 13.834-2.978 21.329-4.964 26.332-2.617 6.605-5.721 11.34-10.756 16.308-5.018 4.967-9.801 8.029-16.533 10.61-5.071 1.959-12.688 4.255-26.693 4.896-15.161.677-19.691.819-58.08.819-38.389 0-42.919-.16-58.08-.819-14.005-.641-21.622-2.937-26.694-4.896-6.696-2.581-11.496-5.643-16.532-10.61-5.035-4.968-8.14-9.685-10.757-16.308-1.967-5.003-4.313-12.498-4.963-26.332-.686-14.954-.83-19.423-.83-57.291 0-37.868.162-42.336.83-57.291.65-13.834 2.996-21.329 4.963-26.332 2.617-6.622 5.722-11.34 10.757-16.307 5.036-4.968 9.818-8.03 16.532-10.611 5.072-1.959 12.689-4.255 26.694-4.896 15.143-.677 19.691-.82 58.08-.82z"/><path fill="#fff" d="M144.057 188.446c-26.463 0-47.925-20.895-47.925-46.659 0-25.763 21.462-46.641 47.925-46.641 26.463 0 47.926 20.878 47.926 46.641 0 25.764-21.463 46.659-47.926 46.659zm0-118.519c-40.777 0-73.81 32.178-73.81 71.86s33.051 71.878 73.81 71.878c40.76 0 73.812-32.196 73.812-71.878s-33.052-71.86-73.812-71.86zm93.244-3.885c0 8.582-7.831 15.54-17.491 15.54-9.642 0-17.472-6.958-17.472-15.54 0-8.582 7.83-15.54 17.472-15.54 9.66 0 17.491 6.958 17.491 15.54z"/></svg>