<svg xmlns="http://www.w3.org/2000/svg" width="262" height="272" fill="none" viewBox="0 0 262 272"><path fill="#fff" d="M59.159 89.35H4.77v182.586h54.39V89.351zM31.962 66.042c17.167 0 31.079-14.796 31.079-33.03S49.129 0 31.962 0C14.778 0 .884 14.778.884 33.012c0 18.216 13.894 33.03 31.078 33.03zm113.716 110.91c0-25.443 11.236-40.584 32.743-40.584 19.772 0 29.273 14.531 29.273 40.584v94.982h53.481V157.368c0-48.468-26.356-71.904-63.161-71.904-36.823 0-52.318 29.904-52.318 29.904V90.982H94.129v180.952h51.567v-94.982h-.018z"/></svg>