<svg width="80" height="20" viewBox="0 0 80 20" fill="none" xmlns="http://www.w3.org/2000/svg">
<path d="M6.19266 19.948C6.12968 19.948 6.06671 19.927 6.02472 19.906L0.188929 16.7572C0.0839683 16.6942 0 16.5892 0 16.4423V3.09134C0 2.9444 0.0839683 2.79745 0.230913 2.75547L3.6946 1.47495C4.40833 1.20206 5.14306 0.908168 5.91976 0.824199C6.84341 0.719239 7.49417 1.03412 8.18691 1.39099L13.4349 4.18293C14.2956 4.64475 14.7364 5.61039 14.7364 7.03785C14.7364 8.08745 14.3586 9.09507 13.6239 9.93475C13.8548 10.0187 14.0647 10.1657 14.2536 10.3546C14.8624 10.9424 15.0723 11.866 15.0723 12.4748C15.0723 15.2038 13.5399 17.219 10.601 18.3106C9.74032 18.6255 9.13155 18.8564 8.52278 19.0873C7.87203 19.3392 7.22127 19.5701 6.29762 19.927C6.27663 19.927 6.23464 19.948 6.19266 19.948ZM0.71373 16.2324L6.21365 19.1923C7.07433 18.8774 7.6831 18.6465 8.29187 18.4155C8.90064 18.1846 9.50941 17.9537 10.3701 17.6388C13.0361 16.6522 14.3796 14.9099 14.3796 12.4748C14.3796 11.992 14.1906 11.2782 13.7708 10.8584C13.5399 10.6275 13.267 10.5225 12.9311 10.5225C12.7842 10.5225 12.6582 10.4386 12.5952 10.2916C12.5323 10.1447 12.5742 9.99773 12.6792 9.89277C13.5609 9.11606 14.0227 8.08745 14.0227 7.03785C14.0227 5.90428 13.7078 5.14856 13.0991 4.81269L7.87203 2.02075C7.24226 1.68487 6.73845 1.45396 6.02472 1.53793C5.33199 1.6219 4.63925 1.8738 3.98849 2.1467L0.71373 3.34325V16.2324ZM6.17167 13.6084C5.98274 13.6084 5.8148 13.4404 5.8148 13.2515V6.59702L4.40833 5.86229C4.2404 5.77833 4.17742 5.54741 4.26139 5.37948C4.34536 5.21154 4.57627 5.14856 4.74421 5.23253L6.19266 6.00924L9.34147 4.85468C9.5304 4.7917 9.74032 4.87567 9.8033 5.0646C9.86627 5.25352 9.7823 5.46345 9.59338 5.52642L6.52853 6.65999V13.2725C6.52853 13.4614 6.38159 13.6084 6.17167 13.6084Z" fill="#8792A4"/>
<path d="M76.2426 7.60474C75.13 7.60474 74.2274 7.9616 73.5136 8.65434C72.8209 9.36807 72.464 10.3757 72.464 11.6982C72.464 13.1047 72.8419 14.1333 73.6186 14.742C74.3953 15.3718 75.298 15.6867 76.3056 15.6867C77.5441 15.6867 78.4888 15.3088 79.1815 14.5741C79.6223 14.1123 79.8742 13.6505 79.9162 13.1886H77.88C77.754 13.4195 77.6281 13.5875 77.4601 13.7134C77.1872 13.9443 76.8094 14.0703 76.3476 14.0703C75.9277 14.0703 75.5499 13.9653 75.256 13.7764C74.7522 13.4615 74.5003 12.9367 74.4583 12.16H80.0002C80.0002 11.5093 79.9792 11.0055 79.9372 10.6486C79.8532 10.0608 79.6433 9.53601 79.3284 9.07418C78.9716 8.57037 78.5517 8.19252 78.0059 7.94061C77.5021 7.73069 76.8934 7.60474 76.2426 7.60474ZM76.2426 9.24212C76.7044 9.24212 77.1033 9.38906 77.4181 9.66196C77.733 9.93486 77.922 10.3337 77.943 10.8585H74.5212C74.5842 10.3547 74.7732 9.97684 75.046 9.68295C75.3189 9.38906 75.7178 9.24212 76.2426 9.24212ZM68.5385 7.62573C67.9087 7.62573 67.4049 7.77267 66.9851 8.08756C66.7542 8.25549 66.5233 8.54938 66.2714 8.92724V7.81466H64.3401V15.4138H66.3343V11.2993C66.3343 10.8375 66.3973 10.4387 66.5233 10.1448C66.7752 9.57799 67.237 9.2841 67.9087 9.2841C68.4545 9.2841 68.8324 9.47303 69.0213 9.87188C69.1263 10.0818 69.1893 10.3967 69.1893 10.7955V15.4348H71.2255V10.2917C71.2255 9.32609 70.9736 8.65434 70.4698 8.2345C69.966 7.83565 69.3152 7.62573 68.5385 7.62573ZM60.3726 15.4348H62.3878V7.81466H60.3726V15.4348ZM62.3878 5.0647H60.3726V6.89101H62.3878V5.0647ZM58.3993 5.12767H56.4051V15.4348H58.3993V5.12767ZM51.5769 7.60474C50.4643 7.60474 49.5617 7.9616 48.8479 8.65434C48.1552 9.36807 47.7983 10.3757 47.7983 11.6982C47.7983 13.1047 48.1762 14.1333 48.9529 14.742C49.7296 15.3508 50.6323 15.6867 51.6399 15.6867C52.8784 15.6867 53.8231 15.3088 54.5158 14.5741C54.9566 14.1123 55.2085 13.6505 55.2505 13.1886H53.2143C53.0883 13.4195 52.9624 13.5875 52.7945 13.7134C52.5216 13.9443 52.1437 14.0703 51.6819 14.0703C51.262 14.0703 50.8842 13.9653 50.5903 13.7764C50.0865 13.4615 49.8346 12.9367 49.7926 12.16H55.3345C55.3345 11.5093 55.3135 11.0055 55.2715 10.6486C55.1875 10.0608 54.9776 9.53601 54.6627 9.07418C54.3269 8.57037 53.886 8.19252 53.3403 7.94061C52.8364 7.73069 52.2277 7.60474 51.5769 7.60474ZM51.5769 9.24212C52.0387 9.24212 52.4376 9.38906 52.7525 9.66196C53.0673 9.93486 53.2563 10.3337 53.2773 10.8585H49.8346C49.8975 10.3547 50.0865 9.97684 50.3594 9.68295C50.6533 9.38906 51.0521 9.24212 51.5769 9.24212ZM39.9473 12.9997C39.9473 13.7764 40.2412 14.4272 40.808 14.931C41.3748 15.4348 42.2564 15.6867 43.474 15.6867C44.6495 15.6867 45.5312 15.4558 46.077 14.973C46.6438 14.4901 46.9167 13.8814 46.9167 13.1257C46.9167 12.5589 46.7277 12.076 46.3289 11.6982C45.93 11.3203 45.3423 11.0474 44.5446 10.8585C43.348 10.6066 42.6553 10.4177 42.4664 10.3127C42.2774 10.2078 42.1725 10.0398 42.1725 9.80891C42.1725 9.61998 42.2564 9.47303 42.4454 9.32609C42.6343 9.20013 42.9492 9.11617 43.369 9.11617C43.8938 9.11617 44.2717 9.24212 44.4816 9.51502C44.6075 9.66196 44.6705 9.87188 44.6915 10.1238H46.6858C46.6018 9.20014 46.2449 8.52839 45.6571 8.15053C45.0484 7.77267 44.2717 7.58375 43.327 7.58375C42.3194 7.58375 41.5427 7.83565 40.9969 8.33946C40.4511 8.84327 40.1572 9.45204 40.1572 10.1448C40.1572 10.7326 40.3252 11.1944 40.682 11.5093C41.0389 11.8241 41.6477 12.097 42.5083 12.307C43.7049 12.6008 44.3976 12.7898 44.5866 12.9157C44.7755 13.0417 44.8594 13.2096 44.8594 13.4195C44.8594 13.6505 44.7335 13.8184 44.5026 13.9443C44.2717 14.0703 43.9568 14.1123 43.5579 14.1123C42.8862 14.1123 42.4244 13.9863 42.1725 13.7134C42.0255 13.5665 41.9416 13.3146 41.8996 12.9577H39.9473V12.9997ZM34.8042 10.8795C34.0275 10.9845 33.4398 11.1314 33.0409 11.3623C32.3062 11.7822 31.9493 12.4539 31.9493 13.3985C31.9493 14.1123 32.1802 14.6791 32.6211 15.0779C33.0829 15.4768 33.6497 15.6657 34.3424 15.6657C34.8882 15.6657 35.371 15.5397 35.8119 15.2878C36.1687 15.0779 36.4836 14.826 36.7775 14.5321C36.7985 14.7001 36.8195 14.868 36.8405 14.9939C36.8615 15.1199 36.9035 15.2668 36.9664 15.4348H39.1286V15.1409C39.0027 15.0779 38.8977 14.9939 38.8347 14.91C38.7718 14.826 38.7298 14.6371 38.7088 14.3852C38.7088 14.0493 38.6878 13.7554 38.6878 13.5035V9.99783C38.6878 9.07418 38.3519 8.44442 37.7012 8.12954C37.0504 7.79367 36.3157 7.62573 35.476 7.62573C34.1955 7.62573 33.2718 7.9616 32.747 8.63335C32.4112 9.05319 32.2222 9.61998 32.1802 10.2707H34.1115C34.1535 9.97684 34.2585 9.74593 34.3844 9.57799C34.5733 9.34708 34.9302 9.22113 35.392 9.22113C35.8119 9.22113 36.1477 9.2841 36.3577 9.38906C36.5676 9.51502 36.6935 9.72494 36.6935 10.0398C36.6935 10.2917 36.5466 10.4807 36.2737 10.6066C36.1058 10.6696 35.8539 10.7326 35.476 10.7745L34.8042 10.8795ZM36.6935 12.4539C36.6725 13.1257 36.4836 13.5875 36.1268 13.8394C35.7699 14.0913 35.35 14.2172 34.9302 14.2172C34.6573 14.2172 34.4264 14.1333 34.2375 13.9863C34.0485 13.8394 33.9436 13.5875 33.9436 13.2516C33.9436 12.8737 34.0905 12.5799 34.4054 12.4119C34.5943 12.307 34.8882 12.223 35.3291 12.139L35.7909 12.0551C36.0218 12.0131 36.1897 11.9711 36.3367 11.9081C36.4626 11.8661 36.5886 11.8032 36.7145 11.7192V12.4539H36.6935ZM27.3101 5.12767H22.335V15.4348H26.9742C27.499 15.4348 27.9818 15.3928 28.4227 15.2878C28.8635 15.2039 29.2623 15.0149 29.5772 14.763C29.8711 14.5531 30.102 14.2802 30.3119 13.9443C30.6268 13.4615 30.7738 12.9157 30.7738 12.307C30.7738 11.7192 30.6478 11.2154 30.3749 10.7955C30.102 10.3757 29.7032 10.0818 29.1784 9.89287C29.5352 9.72494 29.7871 9.51502 29.9551 9.3051C30.27 8.92724 30.4379 8.42343 30.4379 7.79367C30.4379 7.1849 30.27 6.66009 29.9551 6.21926C29.4513 5.50553 28.5696 5.14867 27.3101 5.12767ZM26.9112 10.8795C27.3521 10.8795 27.6879 10.9425 27.9398 11.0474C28.3807 11.2574 28.5906 11.6142 28.5906 12.16C28.5906 12.7898 28.3597 13.2306 27.9189 13.4405C27.6669 13.5665 27.3311 13.6295 26.8692 13.6295H24.3712V10.8795H26.9112ZM26.6173 6.912C27.1002 6.912 27.52 6.97498 27.8349 7.07994C28.2127 7.22688 28.3807 7.54176 28.3807 8.02458C28.3807 8.46541 28.2337 8.7593 27.9608 8.92724C27.6879 9.09517 27.3101 9.17914 26.8692 9.17914H24.3712V6.912H26.6173Z" fill="#8792A4"/>
</svg>
