<svg width="160" height="32" viewBox="0 0 160 32" fill="none" xmlns="http://www.w3.org/2000/svg">
<g clip-path="url(#clip0_266_1753)">
<path fill-rule="evenodd" clip-rule="evenodd" d="M4.98093 10.9042C5.68358 6.49959 10.2549 2.7694 14.672 2.7694H24.837C21.5731 0.535797 17.5919 -0.399466 13.6737 0.146912C9.75546 0.69329 6.18276 2.68192 3.65577 5.72304C1.12879 8.76415 -0.170277 12.6385 0.0131813 16.5867C0.196639 20.5349 1.8494 24.2724 4.64752 27.0665C4.8404 27.2592 5.0388 27.4428 5.2427 27.6171L6.49094 23.0528H15.168L14.5039 25.4809L22.2496 20.922L16.9948 16.3605L16.328 18.8106H12.0047C7.68131 18.8216 4.26175 15.408 4.98093 10.9042Z" fill="#12195D"/>
<path fill-rule="evenodd" clip-rule="evenodd" d="M17.1759 6.28474L9.43028 10.8436L14.685 15.4024L15.3711 12.8862H19.7358C24.0757 12.8862 27.476 16.3218 26.7595 20.8036C26.0569 25.2082 21.4883 28.9384 17.0685 28.9384H6.90625C10.1703 31.1689 14.1502 32.1017 18.0666 31.5541C21.983 31.0065 25.5537 29.018 28.0794 25.978C30.6051 22.9379 31.9039 19.0654 31.7215 15.1188C31.539 11.1722 29.8884 7.43573 27.0929 4.64126C26.889 4.43754 26.6796 4.23933 26.4647 4.04663L25.2054 8.65775H16.5257L17.1759 6.28474Z" fill="#12195D"/>
<path fill-rule="evenodd" clip-rule="evenodd" d="M45.764 11.7219C45.7833 11.5677 45.7971 11.3915 45.8081 11.1906C45.8192 10.9896 45.8081 10.7143 45.8081 10.3647C45.8469 9.75689 45.7674 9.14735 45.5739 8.5698C45.4123 8.21376 45.0228 8.03574 44.4056 8.03574C44.183 8.03092 43.9607 8.05498 43.7443 8.10732C43.5664 8.15932 43.416 8.27891 43.3254 8.44042C43.2047 8.66244 43.1315 8.90713 43.1105 9.15893C43.0667 9.57035 43.0473 9.98402 43.0526 10.3977C43.0526 10.8575 43.0526 11.2236 43.0664 11.4989C43.0699 11.7218 43.0939 11.9438 43.1381 12.1623C43.167 12.3121 43.2261 12.4545 43.3117 12.5808C43.4143 12.7112 43.5297 12.8311 43.6561 12.9387C43.9173 13.1553 44.1935 13.3531 44.4827 13.5305C44.8079 13.7315 45.1551 13.9242 45.5188 14.1059C45.8825 14.2876 46.2352 14.4693 46.5714 14.6565C46.9076 14.8437 47.1914 15.0061 47.4228 15.1603C47.7304 15.3586 48.015 15.5903 48.2715 15.8512C48.5116 16.1122 48.6937 16.4208 48.8061 16.7569C48.9603 17.2332 49.0529 17.7272 49.0816 18.227C49.1276 18.8308 49.1514 19.6227 49.1533 20.6027C49.1724 21.7091 49.0903 22.8148 48.9081 23.9062C48.8007 24.6276 48.5241 25.3135 48.1007 25.9076C47.7285 26.3889 47.2072 26.7335 46.6182 26.8876C45.8646 27.0769 45.0888 27.164 44.3119 27.1464C43.6232 27.1595 42.9355 27.0874 42.2646 26.9317C41.737 26.8012 41.2586 26.5211 40.8868 26.1251C40.4833 25.6526 40.2098 25.0834 40.0932 24.4733C39.9117 23.5673 39.8304 22.6442 39.8508 21.7204C39.8508 21.2579 39.8701 20.8367 39.9086 20.4513C39.9371 20.123 39.985 19.7967 40.0519 19.474H43.0196C42.9778 19.6545 42.9583 19.8394 42.9617 20.0246V20.7431C42.9561 21.2241 42.9801 21.7049 43.0334 22.1829C43.0631 22.4773 43.1413 22.7647 43.2648 23.0336C43.3521 23.218 43.507 23.3619 43.6974 23.4355C43.9158 23.5083 44.1451 23.5427 44.3753 23.5373C44.618 23.5427 44.8602 23.513 45.0945 23.4492C45.294 23.3859 45.4604 23.2464 45.5574 23.0611C45.6948 22.7819 45.778 22.4793 45.8026 22.1691C45.8569 21.6286 45.8809 21.0854 45.8743 20.5422C45.8743 20.1375 45.8743 19.8182 45.8577 19.5759C45.8552 19.3721 45.8265 19.1695 45.7723 18.973C45.7312 18.8225 45.6631 18.6807 45.5712 18.5546C45.4857 18.439 45.3728 18.3041 45.2377 18.1527C44.9559 17.8763 44.6424 17.6342 44.3036 17.4314C43.9289 17.2002 43.5376 16.9799 43.1353 16.7679C42.733 16.556 42.339 16.3385 41.9532 16.1073C41.6029 15.9014 41.2751 15.6597 40.975 15.386C40.7555 15.1905 40.5612 14.9686 40.3964 14.7253C40.2227 14.4418 40.1014 14.1294 40.0381 13.8031C39.9367 13.3099 39.8786 12.8088 39.8645 12.3055C39.8333 11.6907 39.8186 10.8841 39.8205 9.88569C39.8043 9.02096 39.8819 8.15702 40.0519 7.30898C40.1663 6.71148 40.4288 6.15214 40.8152 5.68201C41.1924 5.26637 41.6842 4.97138 42.2287 4.83411C42.9393 4.65621 43.6705 4.57382 44.4028 4.58911C45.1553 4.57206 45.9067 4.65444 46.6375 4.83411C47.1651 4.96439 47.6436 5.24454 48.0153 5.64071C48.3734 6.05894 48.6123 6.56577 48.7069 7.10801C48.8443 7.84403 48.9071 8.59201 48.8943 9.34061C48.8943 9.95451 48.8943 10.4418 48.8502 10.7941C48.8292 11.1106 48.7765 11.4241 48.6931 11.7301L45.764 11.7219Z" fill="#12195D"/>
<path fill-rule="evenodd" clip-rule="evenodd" d="M53.9174 26.7528V8.55612H50.834V4.95532H60.5195V8.55612H57.4637V26.7528H53.9174Z" fill="#12195D"/>
<path fill-rule="evenodd" clip-rule="evenodd" d="M62.8496 26.7528V4.95532H71.0637V8.55612H66.3959V13.9105H70.9783V17.3379H66.3959V22.9813H71.0362V26.7528H62.8496Z" fill="#12195D"/>
<path fill-rule="evenodd" clip-rule="evenodd" d="M73.8594 26.7528V4.95532H82.0735V8.55612H77.4029V13.9105H81.9881V17.3379H77.4029V22.9813H82.0432V26.7528H73.8594Z" fill="#12195D"/>
<path fill-rule="evenodd" clip-rule="evenodd" d="M84.8691 26.7528V4.95532H88.4154V22.9813H92.6809V26.7528H84.8691Z" fill="#12195D"/>
<path d="M99.281 14.3728H91.3535V17.1945H99.281V14.3728Z" fill="#12195D"/>
<path d="M105.876 4.95532H102.244V26.7528H105.876V4.95532Z" fill="#12195D"/>
<path fill-rule="evenodd" clip-rule="evenodd" d="M120.287 26.7528V11.6944H120.144C120.106 12.0771 120.048 12.4708 119.971 12.8727C119.893 13.2746 119.808 13.671 119.712 14.0537L116.973 26.7528H115.361L112.564 14.0261C112.487 13.66 112.41 13.2774 112.332 12.8727C112.255 12.468 112.197 12.0771 112.159 11.6944H112.016V26.7528H108.816V4.95532H114.052L115.493 12.8451C115.629 13.5554 115.735 14.1509 115.81 14.6318C115.887 15.1108 115.953 15.5898 116.011 16.0688H116.185C116.243 15.5898 116.315 15.1108 116.399 14.6318C116.484 14.1528 116.595 13.5572 116.733 12.8451L118.259 4.95532H123.476V26.7528H120.287Z" fill="#12195D"/>
<path fill-rule="evenodd" clip-rule="evenodd" d="M126.396 26.7527V4.95517H131.932C132.636 4.93192 133.337 5.05472 133.991 5.3158C134.549 5.5648 135.007 5.9957 135.288 6.53809C135.646 7.25051 135.871 8.02193 135.952 8.81475C136.09 9.98047 136.152 11.1538 136.14 12.3274C136.151 13.5148 136.089 14.7018 135.952 15.8814C135.87 16.7013 135.645 17.5006 135.288 18.2434C135.011 18.8102 134.555 19.2704 133.991 19.5538C133.344 19.8441 132.64 19.9825 131.932 19.9585H129.943V26.7527H126.396ZM131.326 16.4458C131.527 16.4514 131.723 16.3839 131.877 16.2558C132.064 16.0746 132.198 15.8463 132.266 15.5951C132.39 15.1727 132.468 14.7379 132.497 14.2985C132.543 13.7479 132.567 13.0616 132.569 12.2394C132.575 11.6096 132.546 10.98 132.481 10.3536C132.446 9.96592 132.364 9.58399 132.235 9.21667C132.167 8.99342 132.025 8.79959 131.833 8.66609C131.653 8.56606 131.449 8.51659 131.243 8.52293H129.946V16.443L131.326 16.4458Z" fill="#12195D"/>
<path fill-rule="evenodd" clip-rule="evenodd" d="M138.703 26.7528V4.95532H146.917V8.55612H142.247V13.9105H146.832V17.3379H142.247V22.9813H146.89V26.7528H138.703Z" fill="#12195D"/>
<path fill-rule="evenodd" clip-rule="evenodd" d="M156.224 26.7528C155.899 25.0075 155.631 23.6063 155.419 22.5491C155.208 21.492 155.045 20.657 154.929 20.044C154.813 19.4301 154.731 18.9841 154.684 18.7033C154.639 18.4709 154.616 18.2351 154.612 17.9986H154.337C154.333 18.235 154.31 18.4707 154.268 18.7033C154.218 18.9786 154.135 19.4301 154.022 20.044C153.909 20.6579 153.747 21.492 153.532 22.5491C153.317 23.6063 153.042 25.0075 152.705 26.7528H149.049V26.6372L151.757 14.9181L149.539 5.09848V4.95532H153.199C153.487 6.43455 153.713 7.61463 153.876 8.49556C154.039 9.37924 154.166 10.0675 154.251 10.5547C154.337 11.042 154.4 11.3944 154.439 11.6063C154.472 11.7678 154.491 11.9317 154.496 12.0964H154.755C154.761 11.9317 154.78 11.7678 154.813 11.6063C154.852 11.3944 154.918 11.0558 155.014 10.5547C155.111 10.0537 155.254 9.37924 155.447 8.49556C155.64 7.61188 155.891 6.43363 156.197 4.95532H159.627V5.09848L157.321 14.9016L160.002 26.6482V26.7638L156.224 26.7528Z" fill="#12195D"/>
</g>
<defs>
<clipPath id="clip0_266_1753">
<rect width="160" height="31.7107" fill="white"/>
</clipPath>
</defs>
</svg>
